<svg width="24" height="24" viewBox="0 0 24 24" fill="none" xmlns="http://www.w3.org/2000/svg">
<g id="check" clip-path="url(#clip0_91006_140)">
<path id="Vector" d="M18.0202 3.76502C19.1752 3.78602 20.2162 4.76927 20.2387 5.98352C20.2635 9.98852 20.2387 13.9935 20.2387 17.9985C20.232 19.1655 19.2277 20.22 18.0202 20.2425C14.0152 20.2673 10.0102 20.2425 6.00524 20.2425C4.83824 20.2358 3.78374 19.2315 3.76124 18.024C3.73649 14.019 3.76124 10.014 3.76124 6.00977C3.76799 4.84202 4.77224 3.78752 5.97974 3.76502C9.99299 3.74027 14.007 3.74027 18.0202 3.76502ZM6.01049 5.26277C5.61899 5.26502 5.26649 5.60477 5.25899 6.00227C5.23424 10.0035 5.23424 14.004 5.25899 18.0053C5.26649 18.3923 5.60699 18.7373 5.99849 18.7448C9.99974 18.7695 14.0002 18.7695 18.0015 18.7448C18.3885 18.7373 18.7335 18.3968 18.741 18.0053C18.7657 14.004 18.7657 10.0035 18.741 6.00227C18.7335 5.61602 18.3945 5.27027 18.0015 5.26277C14.0047 5.23802 10.0072 5.26277 6.01049 5.26277ZM8.37224 11.2643C8.61299 11.31 8.65874 11.3565 8.78474 11.4743L11.1697 13.8593L15.1455 8.55827C15.1455 8.55827 15.597 8.13602 16.0312 8.31527C16.4197 8.47652 16.6117 9.00002 16.3957 9.37877C16.3747 9.41477 16.368 9.42302 16.344 9.45752L11.85 15.4493C11.757 15.5663 11.7202 15.5895 11.649 15.6345C11.3895 15.7973 11.0332 15.78 10.7902 15.5903C10.758 15.5648 10.7512 15.5573 10.7212 15.5295L7.72499 12.5333C7.60649 12.4073 7.58549 12.3548 7.55024 12.2573C7.38824 11.808 7.75574 11.2388 8.27849 11.2553C8.30999 11.256 8.34074 11.2598 8.37224 11.2643Z" fill="#10B981"/>
</g>
<defs>
<clipPath id="clip0_91006_140">
<rect width="24" height="24" fill="white"/>
</clipPath>
</defs>
</svg>
