<svg width="16" height="16" viewBox="0 0 16 16" fill="none" xmlns="http://www.w3.org/2000/svg">
<g id="Copy" clip-path="url(#clip0_91005_114)">
<path id="Rectangle 102" d="M5.3335 6.66665C5.3335 5.93027 5.93045 5.33331 6.66683 5.33331H14.6668C15.4032 5.33331 16.0002 5.93027 16.0002 6.66665V14.6666C16.0002 15.403 15.4032 16 14.6668 16H6.66683C5.93045 16 5.3335 15.403 5.3335 14.6666V6.66665Z" fill="#10B981"/>
<path id="Subtract" fill-rule="evenodd" clip-rule="evenodd" d="M2 0C0.895431 0 0 0.895432 0 2V8.66667C0 9.77124 0.895432 10.6667 2 10.6667H4V6.66667C4 5.19391 5.19391 4 6.66667 4H10.6667V2C10.6667 0.895431 9.77123 0 8.66667 0H2ZM10.6667 5.33333H6.66667C5.93029 5.33333 5.33333 5.93029 5.33333 6.66667V10.6667H8.66667C9.77124 10.6667 10.6667 9.77123 10.6667 8.66667V5.33333Z" fill="#10B981"/>
</g>
<defs>
<clipPath id="clip0_91005_114">
<rect width="16" height="16" fill="white"/>
</clipPath>
</defs>
</svg>
